<svg width="28" height="28" viewBox="0 0 28 28" fill="none" xmlns="http://www.w3.org/2000/svg">
<path d="M16.0183 24.5C15.8135 24.8539 15.5191 25.1477 15.1649 25.3519C14.8106 25.5562 14.4089 25.6637 14 25.6637C13.5911 25.6637 13.1894 25.5562 12.8351 25.3519C12.4809 25.1477 12.1865 24.8539 11.9817 24.5M21 9.80001C21 7.82018 20.2627 5.92084 18.9502 4.52084C17.6365 3.12084 15.855 2.33334 14 2.33334C12.1438 2.33334 10.3635 3.11968 9.04983 4.52084C7.73733 5.92084 7 7.82018 7 9.80001C7 18.5115 3.5 21 3.5 21H24.5C24.5 21 21 18.5115 21 9.80001Z" stroke="#FDFDFD" stroke-width="1" stroke-linecap="round" stroke-linejoin="round"/>
</svg>
