<svg xmlns="http://www.w3.org/2000/svg" style="display: none;">

<!-- //browser -->
<symbol id='Browse' viewBox="0 0 24 24" fill="none">
<path d="M10.586 10.586L16.95 7.05l-3.536 6.364m-2.828-2.828L7.05 16.95l6.364-3.536m-2.828-2.828l2.828 2.828" stroke="#FDFDFD" stroke-width="1.5" stroke-linecap="round" stroke-linejoin="round"></path><path d="M12 22c5.523 0 10-4.477 10-10S17.523 2 12 2 2 6.477 2 12s4.477 10 10 10zM19 12h-1M6 12H5M12 5v1M12 18v1M7.05 7.05l.707.707M16.243 16.243l.707.707" stroke="#FDFDFD" stroke-width="1.5" stroke-linecap="round" stroke-linejoin="round"></path>
</symbol>

<!-- treading -->
<symbol id='Treading' viewBox="0 0 24 24" fill="none">
<path d="M20 20H4V4" stroke="#FDFDFD" stroke-width="1.5" stroke-linecap="round" stroke-linejoin="round"></path><path d="M4 16.5L12 9l3 3 4.5-4.5" stroke="#FDFDFD" stroke-width="1.5" stroke-linecap="round" stroke-linejoin="round"></path>
</symbol>

<!-- followin -->
<symbol id='Following' viewBox="0 0 24 24" fill="none">
<path d="M5 20v-1a7 7 0 017-7v0a7 7 0 017 7v1M12 12a4 4 0 100-8 4 4 0 000 8z" stroke="#FDFDFD" stroke-width="1.5" stroke-linecap="round" stroke-linejoin="round"></path>
</symbol>

<!-- video -->
<symbol id='Video' viewBox="0 0 24 24" fill="none">
<path d="M21 3.6v16.8a.6.6 0 01-.6.6H3.6a.6.6 0 01-.6-.6V3.6a.6.6 0 01.6-.6h16.8a.6.6 0 01.6.6z" stroke="#FDFDFD" stroke-width="1.5" stroke-linecap="round" stroke-linejoin="round"></path><path d="M9.898 8.513a.6.6 0 00-.898.52v5.933a.6.6 0 00.898.521l5.19-2.966a.6.6 0 000-1.042l-5.19-2.966z" stroke="#FDFDFD" stroke-width="1.5" stroke-linecap="round" stroke-linejoin="round"></path>
</symbol>


<!-- playlist -->
<symbol id='Playlist' viewBox="0 0 24 24" fill="none">
<path d="M22 17.5L18.5 20v-5l3.5 2.5zM2 5h18M2 11h18M2 17h12" stroke="#FDFDFD" stroke-width="1.5" stroke-linecap="round" stroke-linejoin="round"></path>
</symbol>
</svg>


